<?xml version="1.0" encoding="utf-8"?>
<!-- Generator: Adobe Illustrator 24.3.0, SVG Export Plug-In . SVG Version: 6.00 Build 0)  -->
<svg version="1.1" id="Layer_1" xmlns="http://www.w3.org/2000/svg" xmlns:xlink="http://www.w3.org/1999/xlink" x="0px" y="0px"
	 viewBox="0 0 512 512" style="enable-background:new 0 0 512 512;" xml:space="preserve">
<style type="text/css">
	.st0{fill:url(#XMLID_6_);}
	.st1{fill:url(#XMLID_7_);}
	.st2{fill:url(#XMLID_21_);}
	.st3{fill:url(#XMLID_22_);}
	.st4{fill:url(#XMLID_23_);}
	.st5{fill:url(#XMLID_24_);}
	.st6{fill:url(#XMLID_25_);}
	.st7{fill:#714896;}
	.st8{fill:#6F4795;}
	.st9{fill:#88519F;}
	.st10{fill:#85509E;}
	.st11{fill:#8D166A;}
	.st12{fill:#A70D6F;}
	.st13{fill:#9E61AD;}
	.st14{fill:#8053A3;}
	.st15{fill:url(#XMLID_26_);}
</style>
<g id="XMLID_1_">
	
		<linearGradient id="XMLID_6_" gradientUnits="userSpaceOnUse" x1="5.7705" y1="506.1517" x2="7.7771" y2="506.1517" gradientTransform="matrix(300.8726 253.6141 232.846 -327.7082 -119645.3281 164197.4062)">
		<stop  offset="0" style="stop-color:#C06FBB"/>
		<stop  offset="1" style="stop-color:#6E4D9B"/>
	</linearGradient>
	<polygon id="XMLID_3_" class="st0" points="335.25,98.89 287.7,130.6 238.75,57.23 286.3,25.53 	"/>
	
		<linearGradient id="XMLID_7_" gradientUnits="userSpaceOnUse" x1="4.8494" y1="505.9508" x2="6.8562" y2="505.9508" gradientTransform="matrix(-162.7174 -205.7282 -190.4942 175.7301 97575.4453 -87452.4219)">
		<stop  offset="0" style="stop-color:#6E4D9B"/>
		<stop  offset="0.14" style="stop-color:#77327A"/>
		<stop  offset="0.29" style="stop-color:#B31777"/>
		<stop  offset="0.84" style="stop-color:#CD0F7E"/>
		<stop  offset="1" style="stop-color:#ED2C89"/>
	</linearGradient>
	<polygon id="XMLID_4_" class="st1" points="373.97,319.26 455.05,441.02 358.4,505.55 277.18,383.79 263.01,362.61 359.8,298.08 	
		"/>
	
		<linearGradient id="XMLID_21_" gradientUnits="userSpaceOnUse" x1="5.6641" y1="505.9346" x2="7.6707" y2="505.9346" gradientTransform="matrix(254.3094 384.9924 418.7573 -233.8042 -213516.0312 115887.5938)">
		<stop  offset="0" style="stop-color:#C06FBB"/>
		<stop  offset="1" style="stop-color:#6E4D9B"/>
	</linearGradient>
	<polygon id="XMLID_5_" class="st2" points="252.07,400.62 270.03,427.41 196.38,476.51 164.26,428.54 180.39,417.74 237.9,379.3 	
		"/>
	
		<linearGradient id="XMLID_22_" gradientUnits="userSpaceOnUse" x1="5.6832" y1="506.046" x2="7.6898" y2="506.046" gradientTransform="matrix(366.0318 299.6452 299.0335 -366.7805 -153595.125 183687.5)">
		<stop  offset="0" style="stop-color:#C06FBB"/>
		<stop  offset="1" style="stop-color:#6E4D9B"/>
	</linearGradient>
	<path id="XMLID_8_" class="st3" d="M414.09,261.75L434.71,248l31.98,47.97l-47.55,31.7l-17.67-26.79l26.93-17.96L414.09,261.75z
		 M401.46,300.89l-14.17-21.18l26.93-17.96l14.17,21.18L401.46,300.89z"/>
	
		<linearGradient id="XMLID_23_" gradientUnits="userSpaceOnUse" x1="5.7639" y1="505.8706" x2="7.7706" y2="505.8706" gradientTransform="matrix(341.2086 300.8726 301.0821 -340.9712 -154500 170705.125)">
		<stop  offset="0" style="stop-color:#C06FBB"/>
		<stop  offset="1" style="stop-color:#6E4D9B"/>
	</linearGradient>
	<polygon id="XMLID_9_" class="st4" points="80.94,268.62 64.81,279.43 15.85,206.06 89.49,156.97 123.86,208.31 66.21,246.74 
		123.86,208.31 138.45,230.33 	"/>
	
		<linearGradient id="XMLID_24_" gradientUnits="userSpaceOnUse" x1="4.8004" y1="505.8962" x2="6.807" y2="505.8962" gradientTransform="matrix(-163.1742 -206.8084 -191.6044 176.1223 98159.125 -87642.6484)">
		<stop  offset="0" style="stop-color:#6E4D9B"/>
		<stop  offset="0.14" style="stop-color:#77327A"/>
		<stop  offset="0.29" style="stop-color:#B31777"/>
		<stop  offset="0.84" style="stop-color:#CD0F7E"/>
		<stop  offset="1" style="stop-color:#ED2C89"/>
	</linearGradient>
	<polygon id="XMLID_10_" class="st5" points="260.21,148.97 163.56,213.5 148.83,191.61 68.45,70.98 165.24,6.45 245.62,127.09 	"/>
	
		<linearGradient id="XMLID_25_" gradientUnits="userSpaceOnUse" x1="5.7705" y1="506.1682" x2="7.7771" y2="506.1682" gradientTransform="matrix(300.8726 305.8728 280.8535 -327.6753 -143924.9375 163849.9219)">
		<stop  offset="0" style="stop-color:#C06FBB"/>
		<stop  offset="1" style="stop-color:#6E4D9B"/>
	</linearGradient>
	<polygon id="XMLID_11_" class="st6" points="314.63,112.64 287.7,130.6 273.11,108.71 238.75,57.23 286.3,25.53 335.25,98.89 	"/>
	
		<rect id="XMLID_12_" x="181.74" y="396.42" transform="matrix(0.8318 -0.5551 0.5551 0.8318 -190.7472 188.9039)" class="st7" width="69.16" height="25.53"/>
	
		<rect id="XMLID_13_" x="391.65" y="268.61" transform="matrix(0.8318 -0.5551 0.5551 0.8318 -87.5988 273.6856)" class="st8" width="32.26" height="25.53"/>
	
		<rect id="XMLID_14_" x="67.77" y="225.38" transform="matrix(0.8318 -0.5551 0.5551 0.8318 -115.2093 96.9397)" class="st9" width="69.16" height="26.37"/>
	
		<rect id="XMLID_15_" x="277.73" y="97.49" transform="matrix(0.8318 -0.5551 0.5551 0.8318 -12.0036 181.7375)" class="st10" width="32.26" height="26.37"/>
	
		<rect id="XMLID_16_" x="260.39" y="328.21" transform="matrix(0.8318 -0.5551 0.5551 0.8318 -135.6934 234.1711)" class="st11" width="116.29" height="25.53"/>
	
		<rect id="XMLID_17_" x="146.44" y="157.18" transform="matrix(0.8318 -0.555 0.555 0.8318 -60.1531 142.195)" class="st12" width="116.28" height="26.37"/>
	
		<rect id="XMLID_18_" x="32.46" y="115.87" transform="matrix(0.8318 -0.5551 0.5551 0.8318 -65.2084 49.3831)" class="st13" width="32.82" height="32.82"/>
	
		<rect id="XMLID_19_" x="131.12" y="443.91" transform="matrix(0.8318 -0.5551 0.5551 0.8318 -230.7033 159.3256)" class="st14" width="32.82" height="32.82"/>
	
		<linearGradient id="XMLID_26_" gradientUnits="userSpaceOnUse" x1="5.401" y1="505.2934" x2="7.4076" y2="505.2934" gradientTransform="matrix(199.8222 -158.46 -199.2084 -158.9483 99634.4609 81591.1172)">
		<stop  offset="0" style="stop-color:#6E4D9B"/>
		<stop  offset="0.14" style="stop-color:#77327A"/>
		<stop  offset="0.53" style="stop-color:#B31777"/>
		<stop  offset="0.79" style="stop-color:#CD0F7E"/>
		<stop  offset="1" style="stop-color:#ED2C89"/>
	</linearGradient>
	<polygon id="XMLID_20_" class="st15" points="80.1,465.01 0,343.95 427.98,57.79 512,176.75 	"/>
</g>
</svg>
