<?xml version="1.0" encoding="utf-8"?>
<!-- Generator: Adobe Illustrator 19.0.0, SVG Export Plug-In . SVG Version: 6.00 Build 0)  -->
<svg version="1.1" id="Layer_1" xmlns="http://www.w3.org/2000/svg" xmlns:xlink="http://www.w3.org/1999/xlink" x="0px" y="0px"
	 viewBox="0 0 500 500" style="enable-background:new 0 0 500 500;" xml:space="preserve">
<style type="text/css">
	.st0{fill:#95BF46;}
	.st1{fill:#5E8E3E;}
	.st2{fill:#FFFFFF;}
</style>
<g id="XMLID_1_">
	<path id="XMLID_7_" class="st0" d="M370.6,138.6c-0.3-1.8-1.9-2.8-3.2-3c-1.3-0.1-29.4-2.2-29.4-2.2s-19.5-19.3-21.6-21.5
		c-2.1-2.1-6.3-1.5-7.9-1c-0.2,0.1-4.3,1.3-10.9,3.4c-6.5-18.7-18-35.9-38.2-35.9c-0.6,0-1.1,0-1.7,0.1c-5.7-7.6-12.9-10.9-19-10.9
		c-47.1,0-69.6,58.8-76.6,88.8c-18.3,5.7-31.3,9.7-32.9,10.2c-10.2,3.2-10.5,3.5-11.9,13.1c-1,7.3-27.7,213.9-27.7,213.9l208.2,39
		l112.8-24.4C410.5,408.1,370.9,140.4,370.6,138.6z M286.1,117.8c-5.2,1.6-11.2,3.5-17.6,5.5c0-1.2,0-2.5,0-3.8
		c0-11.6-1.6-21-4.2-28.4C274.7,92.4,281.6,104.2,286.1,117.8z M251.4,93.4c2.9,7.3,4.8,17.7,4.8,31.7c0,0.7,0,1.4,0,2
		c-11.5,3.5-23.9,7.4-36.4,11.3C226.8,111.3,239.9,98.3,251.4,93.4z M237.4,80.1c2,0,4.1,0.7,6,2c-15.1,7.1-31.3,25-38.1,60.7
		c-10,3.1-19.7,6.1-28.8,8.9C184.6,124.5,203.6,80.1,237.4,80.1z"/>
	<path id="XMLID_8_" class="st1" d="M367.4,135.6c-1.3-0.1-29.4-2.2-29.4-2.2s-19.5-19.3-21.6-21.5c-0.8-0.8-1.9-1.2-3-1.4
		l-15.7,321.9l112.8-24.4c0,0-39.6-267.7-39.8-269.5C370.4,136.7,368.8,135.7,367.4,135.6"/>
	<path id="XMLID_9_" class="st2" d="M259.4,197.9l-13.9,41.4c0,0-12.2-6.5-27.1-6.5c-21.9,0-23,13.7-23,17.2
		c0,18.9,49.3,26.1,49.3,70.4c0,34.8-22.1,57.2-51.9,57.2c-35.7,0-54-22.2-54-22.2l9.6-31.6c0,0,18.8,16.1,34.6,16.1
		c10.4,0,14.6-8.2,14.6-14.1c0-24.6-40.4-25.7-40.4-66.2c0-34.1,24.5-67.1,73.9-67.1C250,192.5,259.4,197.9,259.4,197.9"/>
</g>
</svg>
